HIERARCHY
ROOT Hips
{
	OFFSET 0.053599 88.859886 3.107447
	CHANNELS 6 Xposition Yposition Zposition Zrotation Yrotation Xrotation 
	JOINT Spine
	{
		OFFSET -0.000000 8.814246 -2.080107
		CHANNELS 3 Zrotation Yrotation Xrotation
		JOINT Spine1
		{
			OFFSET 0.000000 8.844141 0.000000
			CHANNELS 3 Zrotation Yrotation Xrotation
			JOINT Spine2
			{
				OFFSET -0.000000 11.682268 0.000000
				CHANNELS 3 Zrotation Yrotation Xrotation
				JOINT Spine3
				{
					OFFSET 0.000000 11.746700 0.000000
					CHANNELS 3 Zrotation Yrotation Xrotation
					JOINT Neck
					{
						OFFSET -0.000000 17.658264 -0.000000
						CHANNELS 3 Zrotation Yrotation Xrotation
						JOINT Neck1
						{
							OFFSET -0.000000 5.101515 -0.000000
							CHANNELS 3 Zrotation Yrotation Xrotation
							JOINT Head
							{
								OFFSET 0.000000 5.101515 0.000000
								CHANNELS 3 Zrotation Yrotation Xrotation
								JOINT HeadEnd
								{
									OFFSET 0.000000 11.655085 0.000000
									CHANNELS 3 Zrotation Yrotation Xrotation
									End Site
									{
										OFFSET 0.000000 0.000000 0.000000
									}
								}
							}
						}
					}
					JOINT RightShoulder
					{
						OFFSET -2.625389 11.175210 0.000000
						CHANNELS 3 Zrotation Yrotation Xrotation
						JOINT RightArm
						{
							OFFSET -0.000000 10.434715 -0.000000
							CHANNELS 3 Zrotation Yrotation Xrotation
							JOINT RightForeArm
							{
								OFFSET -0.000000 29.628420 0.000000
								CHANNELS 3 Zrotation Yrotation Xrotation
								JOINT RightHand
								{
									OFFSET -0.000000 22.857611 0.000000
									CHANNELS 3 Zrotation Yrotation Xrotation
									JOINT RightHandThumb1
									{
										OFFSET -2.867323 3.959563 2.944291
										CHANNELS 3 Zrotation Yrotation Xrotation
										JOINT RightHandThumb2
										{
											OFFSET 0.000000 3.350399 0.000000
											CHANNELS 3 Zrotation Yrotation Xrotation
											JOINT RightHandThumb3
											{
												OFFSET 0.000000 3.756509 -0.000000
												CHANNELS 3 Zrotation Yrotation Xrotation
												JOINT RightHandThumb4
												{
													OFFSET 0.000000 3.147345 0.000000
													CHANNELS 3 Zrotation Yrotation Xrotation
													End Site
													{
														OFFSET 0.000000 0.000000 0.000000
													}
												}
											}
										}
									}
									JOINT RightHandIndex1
									{
										OFFSET -0.086752 10.030893 2.345280
										CHANNELS 3 Zrotation Yrotation Xrotation
										JOINT RightHandIndex2
										{
											OFFSET -0.000000 4.061090 0.000000
											CHANNELS 3 Zrotation Yrotation Xrotation
											JOINT RightHandIndex3
											{
												OFFSET -0.000000 3.248873 0.000000
												CHANNELS 3 Zrotation Yrotation Xrotation
												JOINT RightHandIndex4
												{
													OFFSET 0.000000 2.639709 -0.000000
													CHANNELS 3 Zrotation Yrotation Xrotation
													End Site
													{
														OFFSET 0.000000 0.000000 0.000000
													}
												}
											}
										}
									}
									JOINT RightHandMiddle1
									{
										OFFSET 0.104102 9.502952 0.006768
										CHANNELS 3 Zrotation Yrotation Xrotation
										JOINT RightHandMiddle2
										{
											OFFSET 0.000000 4.568727 0.000000
											CHANNELS 3 Zrotation Yrotation Xrotation
											JOINT RightHandMiddle3
											{
												OFFSET 0.000000 3.654981 -0.000000
												CHANNELS 3 Zrotation Yrotation Xrotation
												JOINT RightHandMiddle4
												{
													OFFSET -0.000000 2.741236 -0.000000
													CHANNELS 3 Zrotation Yrotation Xrotation
													End Site
													{
														OFFSET 0.000000 0.000000 0.000000
													}
												}
											}
										}
									}
									JOINT RightHandRing1
									{
										OFFSET 0.086752 8.921708 -2.267442
										CHANNELS 3 Zrotation Yrotation Xrotation
										JOINT RightHandRing2
										{
											OFFSET -0.000000 4.061090 0.000000
											CHANNELS 3 Zrotation Yrotation Xrotation
											JOINT RightHandRing3
											{
												OFFSET 0.000000 3.654981 -0.000000
												CHANNELS 3 Zrotation Yrotation Xrotation
												JOINT RightHandRing4
												{
													OFFSET 0.000000 2.741236 -0.000000
													CHANNELS 3 Zrotation Yrotation Xrotation
													End Site
													{
														OFFSET 0.000000 0.000000 0.000000
													}
												}
											}
										}
									}
									JOINT RightHandPinky1
									{
										OFFSET -0.173504 7.976997 -4.467199
										CHANNELS 3 Zrotation Yrotation Xrotation
										JOINT RightHandPinky2
										{
											OFFSET 0.000000 3.350399 -0.000000
											CHANNELS 3 Zrotation Yrotation Xrotation
											JOINT RightHandPinky3
											{
												OFFSET -0.000000 2.842763 0.000000
												CHANNELS 3 Zrotation Yrotation Xrotation
												JOINT RightHandPinky4
												{
													OFFSET -0.000000 2.639709 0.000000
													CHANNELS 3 Zrotation Yrotation Xrotation
													End Site
													{
														OFFSET 0.000000 0.000000 0.000000
													}
												}
											}
										}
									}
									JOINT RightForeArmEnd
									{
										OFFSET 0.000000 0.000000 0.000000
										CHANNELS 3 Zrotation Yrotation Xrotation
										End Site
										{
											OFFSET 0.000000 0.000000 0.000000
										}
									}
								}
								JOINT RightArmEnd
								{
									OFFSET 0.000000 0.000000 0.000000
									CHANNELS 3 Zrotation Yrotation Xrotation
									End Site
									{
										OFFSET 0.000000 0.000000 0.000000
									}
								}
							}
						}
					}
					JOINT LeftShoulder
					{
						OFFSET 2.625389 11.175210 0.000000
						CHANNELS 3 Zrotation Yrotation Xrotation
						JOINT LeftArm
						{
							OFFSET 0.000000 10.813635 -0.000000
							CHANNELS 3 Zrotation Yrotation Xrotation
							JOINT LeftForeArm
							{
								OFFSET 0.000000 28.724781 0.000000
								CHANNELS 3 Zrotation Yrotation Xrotation
								JOINT LeftHand
								{
									OFFSET 0.644384 25.716167 -0.328871
									CHANNELS 3 Zrotation Yrotation Xrotation
									JOINT LeftHandThumb1
									{
										OFFSET 2.867323 3.959563 2.944291
										CHANNELS 3 Zrotation Yrotation Xrotation
										JOINT LeftHandThumb2
										{
											OFFSET 0.000000 3.350399 0.000000
											CHANNELS 3 Zrotation Yrotation Xrotation
											JOINT LeftHandThumb3
											{
												OFFSET -0.000000 3.756509 0.000000
												CHANNELS 3 Zrotation Yrotation Xrotation
												JOINT LeftHandThumb4
												{
													OFFSET -0.000000 3.100000 0.000000
													CHANNELS 3 Zrotation Yrotation Xrotation
													End Site
													{
														OFFSET 0.000000 0.000000 0.000000
													}
												}
											}
										}
									}
									JOINT LeftHandIndex1
									{
										OFFSET 0.086752 10.030893 2.345280
										CHANNELS 3 Zrotation Yrotation Xrotation
										JOINT LeftHandIndex2
										{
											OFFSET -0.000000 4.061090 -0.000000
											CHANNELS 3 Zrotation Yrotation Xrotation
											JOINT LeftHandIndex3
											{
												OFFSET 0.000000 3.248873 -0.000000
												CHANNELS 3 Zrotation Yrotation Xrotation
												JOINT LeftHandIndex4
												{
													OFFSET 0.000000 2.639709 -0.000000
													CHANNELS 3 Zrotation Yrotation Xrotation
													End Site
													{
														OFFSET 0.000000 0.000000 0.000000
													}
												}
											}
										}
									}
									JOINT LeftHandMiddle1
									{
										OFFSET -0.104102 9.502952 0.006768
										CHANNELS 3 Zrotation Yrotation Xrotation
										JOINT LeftHandMiddle2
										{
											OFFSET -0.000000 4.568727 -0.000000
											CHANNELS 3 Zrotation Yrotation Xrotation
											JOINT LeftHandMiddle3
											{
												OFFSET 0.000000 3.654981 0.000000
												CHANNELS 3 Zrotation Yrotation Xrotation
												JOINT LeftHandMiddle4
												{
													OFFSET 0.000000 2.741236 -0.000000
													CHANNELS 3 Zrotation Yrotation Xrotation
													End Site
													{
														OFFSET 0.000000 0.000000 0.000000
													}
												}
											}
										}
									}
									JOINT LeftHandRing1
									{
										OFFSET -0.086752 8.921708 -2.267442
										CHANNELS 3 Zrotation Yrotation Xrotation
										JOINT LeftHandRing2
										{
											OFFSET 0.000000 4.061090 0.000000
											CHANNELS 3 Zrotation Yrotation Xrotation
											JOINT LeftHandRing3
											{
												OFFSET 0.000000 3.654981 0.000000
												CHANNELS 3 Zrotation Yrotation Xrotation
												JOINT LeftHandRing4
												{
													OFFSET 0.000000 2.741236 0.000000
													CHANNELS 3 Zrotation Yrotation Xrotation
													End Site
													{
														OFFSET 0.000000 0.000000 0.000000
													}
												}
											}
										}
									}
									JOINT LeftHandPinky1
									{
										OFFSET 0.173504 7.976997 -4.467199
										CHANNELS 3 Zrotation Yrotation Xrotation
										JOINT LeftHandPinky2
										{
											OFFSET -0.000000 3.350399 -0.000000
											CHANNELS 3 Zrotation Yrotation Xrotation
											JOINT LeftHandPinky3
											{
												OFFSET 0.000000 2.842763 0.000000
												CHANNELS 3 Zrotation Yrotation Xrotation
												JOINT LeftHandPinky4
												{
													OFFSET -0.000000 2.639709 -0.000000
													CHANNELS 3 Zrotation Yrotation Xrotation
													End Site
													{
														OFFSET 0.000000 0.000000 0.000000
													}
												}
											}
										}
									}
									JOINT LeftForeArmEnd
									{
										OFFSET 0.000000 0.000000 0.000000
										CHANNELS 3 Zrotation Yrotation Xrotation
										End Site
										{
											OFFSET 0.000000 0.000000 0.000000
										}
									}
								}
								JOINT LeftArmEnd
								{
									OFFSET 0.000000 0.000000 0.000000
									CHANNELS 3 Zrotation Yrotation Xrotation
									End Site
									{
										OFFSET 0.000000 0.000000 0.000000
									}
								}
							}
						}
					}
				}
			}
		}
	}
	JOINT RightUpLeg
	{
		OFFSET -11.289943 0.000000 0.000000
		CHANNELS 3 Zrotation Yrotation Xrotation
		JOINT RightLeg
		{
			OFFSET 0.000000 -38.200325 0.000000
			CHANNELS 3 Zrotation Yrotation Xrotation
			JOINT RightFoot
			{
				OFFSET -0.000000 -39.900856 -0.000000
				CHANNELS 3 Zrotation Yrotation Xrotation
				JOINT RightToeBase
				{
					OFFSET 0.000000 0.000000 15.261641
					CHANNELS 3 Zrotation Yrotation Xrotation
					JOINT RightToeBaseEnd
					{
						OFFSET 0.000000 0.000000 7.370709
						CHANNELS 3 Zrotation Yrotation Xrotation
						End Site
						{
							OFFSET 0.000000 0.000000 0.000000
						}
					}
				}
				JOINT RightLegEnd
				{
					OFFSET 0.000000 0.000000 0.000000
					CHANNELS 3 Zrotation Yrotation Xrotation
					End Site
					{
						OFFSET 0.000000 0.000000 0.000000
					}
				}
			}
			JOINT RightUpLegEnd
			{
				OFFSET 0.000000 0.000000 0.000000
				CHANNELS 3 Zrotation Yrotation Xrotation
				End Site
				{
					OFFSET 0.000000 0.000000 0.000000
				}
			}
		}
	}
	JOINT LeftUpLeg
	{
		OFFSET 11.315661 -0.000000 0.000000
		CHANNELS 3 Zrotation Yrotation Xrotation
		JOINT LeftLeg
		{
			OFFSET -0.000000 -38.200325 -0.000000
			CHANNELS 3 Zrotation Yrotation Xrotation
			JOINT LeftFoot
			{
				OFFSET 0.000000 -39.900856 -0.000000
				CHANNELS 3 Zrotation Yrotation Xrotation
				JOINT LeftToeBase
				{
					OFFSET -0.000000 -0.000000 15.261641
					CHANNELS 3 Zrotation Yrotation Xrotation
					JOINT LeftToeBaseEnd
					{
						OFFSET 0.000000 -0.000000 7.539996
						CHANNELS 3 Zrotation Yrotation Xrotation
						End Site
						{
							OFFSET 0.000000 0.000000 0.000000
						}
					}
				}
				JOINT LeftLegEnd
				{
					OFFSET 0.000000 0.000000 0.000000
					CHANNELS 3 Zrotation Yrotation Xrotation
					End Site
					{
						OFFSET 0.000000 0.000000 0.000000
					}
				}
			}
			JOINT LeftUpLegEnd
			{
				OFFSET 0.000000 0.000000 0.000000
				CHANNELS 3 Zrotation Yrotation Xrotation
				End Site
				{
					OFFSET 0.000000 0.000000 0.000000
				}
			}
		}
	}
}
MOTION
Frames: 5
Frame Time: 0.016667
-0.240062 87.249901 2.833142 0.509706 0.889225 -11.899117 1.336028 0.208372 7.102090 0.640881 0.067075 0.941597 -0.968412 1.106397 6.620286 -0.813369 0.469589 5.746049 0.573618 0.020208 5.637852 -0.015640 0.545064 -2.389259 -0.111638 -0.828110 -21.309393 0.000000 0.000000 0.000000 91.155312 -0.528574 7.206192 65.167168 -1.021823 1.325437 -0.678865 19.327492 78.028885 3.705954 35.676411 -2.316440 7.130828 -1.404988 41.454609 0.000000 0.000011 -17.288582 0.000011 0.000063 -11.889365 0.000013 0.000001 -0.000013 -4.178509 0.111973 2.279791 0.383109 -0.019123 0.228465 0.312569 -0.002619 0.177771 -0.000010 0.000035 -0.000008 -3.515616 0.037422 -2.614756 0.378799 -0.026984 0.071429 0.473800 -0.007158 0.072269 -0.000000 0.000061 -0.000001 0.605949 -0.037038 -9.462112 1.489356 0.040818 -0.147845 1.485351 0.014756 -0.109833 -0.000011 -0.000317 0.000005 5.472941 -0.041065 -17.860088 3.226461 0.120901 -0.315080 3.195333 0.021789 -0.275046 -0.000693 0.000002 -0.000041 0.000000 0.000000 0.000000 0.000000 0.000000 0.000000 -88.036873 0.145146 0.575556 -72.646660 -2.961828 -11.872472 0.483386 -16.657402 104.771667 -16.915724 -24.605093 5.803021 -5.278467 1.069366 42.221649 0.000022 0.000023 -13.064352 0.000036 -0.000020 -9.212355 0.001841 0.000019 0.000035 12.367988 0.145012 8.082883 0.525902 -0.020532 -0.144487 0.381181 -0.004686 -0.108670 -0.000011 -0.000397 -0.000005 9.276737 0.067543 1.101133 -0.006587 -0.015604 -0.069313 0.195512 0.001544 -0.055397 -0.000428 0.000010 0.000074 2.027232 -0.020684 -9.176897 -1.776595 0.041017 0.063900 -1.414306 -0.003220 0.053844 -0.000568 0.000013 0.000007 -3.473268 -0.039315 -20.239735 -4.467034 0.068040 0.302863 -4.508005 -0.000095 0.230947 0.000099 0.000008 -0.000045 0.000000 0.000000 0.000000 0.000000 0.000000 0.000000 -2.668627 -10.680393 17.632025 -0.053863 -0.602739 4.425015 -1.357544 -7.321497 16.087124 -1.249792 0.685854 -17.269440 0.000000 0.000000 0.000000 0.000000 0.000000 0.000000 0.000000 0.000000 0.000000 -1.311066 -3.089136 12.364028 0.067806 0.418907 10.114337 3.828863 -1.014144 14.877169 0.147226 -0.551174 -19.692806 0.000000 0.000000 0.000000 0.000000 0.000000 0.000000 0.000000 0.000000 0.000000 
-0.238766 87.246498 2.830191 0.503121 0.907970 -11.902400 1.316580 0.212688 7.103251 0.618741 0.075752 0.960926 -0.970815 1.075197 6.583850 -0.817756 0.451096 5.774048 0.599154 0.012142 5.667195 -0.018575 0.539734 -2.372086 -0.113528 -0.824745 -21.297394 0.000000 0.000000 0.000000 91.138451 -0.525343 7.153054 65.136406 -0.804765 1.241457 -0.680679 19.401106 78.170471 3.567862 35.495846 -2.285455 7.132524 -1.404174 41.454853 0.000000 0.000010 -17.292513 0.000011 0.000063 -11.889083 0.000013 0.000001 -0.000013 -4.178304 0.112593 2.282526 0.394481 -0.019757 0.233842 0.319642 -0.003221 0.183728 -0.000010 0.000036 -0.000008 -3.521614 0.037973 -2.616978 0.381637 -0.027411 0.074446 0.474430 -0.007629 0.074817 -0.000000 0.000060 -0.000001 0.600972 -0.037228 -9.481168 1.484318 0.041768 -0.153295 1.482045 0.015658 -0.113802 -0.000011 -0.000315 0.000005 5.490939 -0.039475 -17.898674 3.225861 0.122917 -0.333418 3.190656 0.024263 -0.291058 -0.000702 0.000002 -0.000041 0.000000 0.000000 0.000000 0.000000 0.000000 0.000000 -88.015518 0.153610 0.548060 -72.722366 -3.041960 -11.924910 0.496417 -16.703445 104.766930 -17.042715 -24.786198 5.852746 -5.289891 1.072142 42.214359 0.000023 0.000023 -13.092035 0.000033 -0.000020 -9.234080 0.001818 0.000019 0.000024 12.254311 0.144326 8.033193 0.540257 -0.021943 -0.150192 0.394565 -0.006029 -0.114537 -0.000011 -0.000412 -0.000005 9.160329 0.067296 1.066075 0.008551 -0.016265 -0.071838 0.211780 0.001078 -0.057636 -0.000430 0.000010 0.000071 1.883465 -0.020917 -9.196782 -1.768667 0.041677 0.068911 -1.406466 -0.002561 0.057719 -0.000596 0.000013 0.000007 -3.610588 -0.038961 -20.244276 -4.469334 0.069717 0.317092 -4.513577 0.002251 0.244026 0.000097 0.000008 -0.000045 0.000000 0.000000 0.000000 0.000000 0.000000 0.000000 -2.685535 -10.666880 17.636887 -0.053585 -0.602070 4.422310 -1.328811 -7.317613 16.109571 -1.248407 0.688422 -17.279442 0.000000 0.000000 0.000000 0.000000 0.000000 0.000000 0.000000 0.000000 0.000000 -1.323399 -3.072657 12.341159 0.067994 0.419948 10.175460 3.846136 -1.006655 14.858292 0.142572 -0.550384 -19.701908 0.000000 0.000000 0.000000 0.000000 0.000000 0.000000 0.000000 0.000000 0.000000 
-0.237227 87.244942 2.827920 0.498518 0.919528 -11.906012 1.297035 0.216554 7.103341 0.595020 0.083729 0.985264 -0.973135 1.043675 6.541935 -0.824837 0.431928 5.797537 0.616741 0.012762 5.701112 -0.021576 0.542058 -2.353037 -0.117265 -0.821106 -21.289783 0.000000 0.000000 0.000000 91.123123 -0.520328 7.097739 65.108681 -0.533393 1.160215 -0.685201 19.477789 78.408455 3.484195 35.316650 -2.212124 7.143035 -1.404234 41.451508 -0.000001 0.000010 -17.316128 0.000012 0.000063 -11.902972 0.000013 0.000001 -0.000013 -4.149885 0.113391 2.287490 0.413643 -0.019924 0.237893 0.334674 -0.003384 0.188600 -0.000010 0.000036 -0.000007 -3.498932 0.038495 -2.619060 0.394072 -0.027697 0.076909 0.483194 -0.007930 0.076963 -0.000001 0.000058 -0.000001 0.628473 -0.037436 -9.500199 1.489528 0.042465 -0.158115 1.488774 0.016390 -0.117264 -0.000010 -0.000312 0.000004 5.542173 -0.037982 -17.937868 3.235870 0.124326 -0.350006 3.197077 0.026147 -0.305587 -0.000713 0.000002 -0.000041 0.000000 0.000000 0.000000 0.000000 0.000000 0.000000 -88.000587 0.162221 0.515781 -72.809265 -3.186986 -11.978900 0.507179 -16.761805 104.770660 -17.225983 -24.963318 5.913287 -5.305908 1.075773 42.204739 0.000023 0.000023 -13.133061 0.000030 -0.000020 -9.264570 0.001792 0.000019 0.000019 12.118212 0.143718 7.978670 0.560461 -0.023329 -0.156187 0.413626 -0.007382 -0.120519 -0.000011 -0.000426 -0.000006 9.017060 0.067091 1.025467 0.027982 -0.016912 -0.074475 0.232272 0.000598 -0.059997 -0.000442 0.000011 0.000068 1.708552 -0.021085 -9.222299 -1.760009 0.042353 0.073999 -1.396577 -0.001909 0.061610 -0.000621 0.000013 0.000007 -3.777843 -0.038691 -20.256229 -4.474616 0.071266 0.331441 -4.521510 0.004512 0.257140 0.000094 0.000008 -0.000045 0.000000 0.000000 0.000000 0.000000 0.000000 0.000000 -2.704189 -10.655674 17.641176 -0.053396 -0.601618 4.421959 -1.298512 -7.320562 16.131699 -1.247585 0.691545 -17.288895 0.000000 0.000000 0.000000 0.000000 0.000000 0.000000 0.000000 0.000000 0.000000 -1.339222 -3.060201 12.320160 0.068075 0.420140 10.235254 3.867110 -0.994348 14.845263 0.137666 -0.549042 -19.714144 0.000000 0.000000 0.000000 0.000000 0.000000 0.000000 0.000000 0.000000 0.000000 
-0.235677 87.245239 2.827087 0.495107 0.920035 -11.911292 1.278786 0.219791 7.103371 0.571736 0.090569 1.010245 -0.974864 1.013244 6.499101 -0.834956 0.412796 5.816676 0.624299 0.022500 5.740553 -0.025081 0.550971 -2.331699 -0.122800 -0.817612 -21.288845 0.000000 0.000000 0.000000 91.110283 -0.513082 7.044878 65.080147 -0.213381 1.089583 -0.692139 19.557539 78.706741 3.471668 35.157684 -2.094100 7.162797 -1.405402 41.444183 -0.000001 0.000009 -17.360909 0.000012 0.000063 -11.931932 0.000013 0.000001 -0.000013 -4.088391 0.114257 2.294729 0.439220 -0.019802 0.240905 0.356164 -0.003267 0.192524 -0.000011 0.000036 -0.000006 -3.441803 0.038952 -2.620002 0.415286 -0.027878 0.078811 0.499559 -0.008094 0.078686 -0.000001 0.000056 -0.000001 0.695073 -0.037585 -9.517680 1.505362 0.042969 -0.162161 1.505889 0.016992 -0.120104 -0.000010 -0.000308 0.000004 5.630539 -0.036398 -17.974653 3.257884 0.125274 -0.364023 3.215926 0.027554 -0.317955 -0.000726 0.000002 -0.000041 0.000000 0.000000 0.000000 0.000000 0.000000 0.000000 -87.995346 0.170815 0.483094 -72.903542 -3.405322 -12.025951 0.514864 -16.834337 104.744820 -17.483940 -25.166412 5.974495 -5.325379 1.079935 42.193539 0.000023 0.000023 -13.183989 0.000027 -0.000020 -9.301477 0.001763 0.000019 0.000015 11.969739 0.143138 7.924147 0.587648 -0.024771 -0.162535 0.439330 -0.008840 -0.126620 -0.000011 -0.000442 -0.000006 8.857869 0.066898 0.983603 0.052452 -0.017570 -0.077171 0.257465 0.000095 -0.062427 -0.000461 0.000011 0.000065 1.511845 -0.021157 -9.249883 -1.750408 0.043055 0.078984 -1.384452 -0.001252 0.065384 -0.000641 0.000013 0.000007 -3.969263 -0.038335 -20.274191 -4.483105 0.072789 0.345205 -4.532506 0.006763 0.269647 0.000093 0.000008 -0.000045 0.000000 0.000000 0.000000 0.000000 0.000000 0.000000 -2.721705 -10.645557 17.647341 -0.053253 -0.601373 4.421171 -1.270226 -7.328935 16.152514 -1.247399 0.695050 -17.295746 0.000000 0.000000 0.000000 0.000000 0.000000 0.000000 0.000000 0.000000 0.000000 -1.356229 -3.049660 12.306351 0.068046 0.419549 10.287735 3.890890 -0.975185 14.837418 0.132966 -0.547247 -19.726818 0.000000 0.000000 0.000000 0.000000 0.000000 0.000000 0.000000 0.000000 0.000000 
-0.234339 87.246765 2.827707 0.491395 0.907488 -11.917657 1.262409 0.221871 7.104857 0.549869 0.095822 1.032156 -0.974800 0.982359 6.457735 -0.846992 0.393600 5.830615 0.621782 0.042596 5.787383 -0.029172 0.567593 -2.306629 -0.130811 -0.814267 -21.293892 0.000000 0.000000 0.000000 91.102592 -0.504193 6.994943 65.042297 0.136089 1.036028 -0.700851 19.638674 79.035332 3.533168 35.016636 -1.947049 7.192737 -1.407856 41.432411 -0.000002 0.000009 -17.428894 0.000013 0.000063 -11.977376 0.000013 0.000001 -0.000013 -3.989087 0.115066 2.303893 0.471711 -0.019297 0.242623 0.384190 -0.002754 0.195230 -0.000012 0.000036 -0.000005 -3.346200 0.039328 -2.619466 0.445790 -0.027891 0.080009 0.524390 -0.008083 0.079850 -0.000001 0.000055 -0.000002 0.804640 -0.037662 -9.532261 1.532782 0.043161 -0.165153 1.534229 0.017378 -0.122126 -0.000010 -0.000309 0.000004 5.758377 -0.034605 -18.007282 3.292588 0.125397 -0.374482 3.247874 0.028195 -0.327479 -0.000740 0.000002 -0.000040 0.000000 0.000000 0.000000 0.000000 0.000000 0.000000 -87.998482 0.178056 0.451595 -73.001801 -3.693043 -12.059874 0.518278 -16.920841 104.662224 -17.799887 -25.418615 6.017317 -5.349264 1.084639 42.180531 0.000023 0.000023 -13.246282 0.000024 -0.000020 -9.346051 0.001729 0.000019 0.000016 11.811298 0.142549 7.869378 0.619835 -0.026167 -0.168947 0.469934 -0.010287 -0.132641 -0.000011 -0.000459 -0.000006 8.685843 0.066708 0.940524 0.079919 -0.018204 -0.079811 0.285172 -0.000394 -0.064808 -0.000488 0.000011 0.000062 1.296060 -0.021092 -9.279149 -1.741884 0.043714 0.083627 -1.372588 -0.000633 0.068884 -0.000658 0.000013 0.000007 -4.183683 -0.037662 -20.297110 -4.496509 0.074125 0.357639 -4.548490 0.008850 0.280925 0.000093 0.000009 -0.000045 0.000000 0.000000 0.000000 0.000000 0.000000 0.000000 -2.734697 -10.634966 17.653671 -0.053083 -0.601108 4.420620 -1.246815 -7.341164 16.171679 -1.247410 0.698601 -17.300322 0.000000 0.000000 0.000000 0.000000 0.000000 0.000000 0.000000 0.000000 0.000000 -1.370898 -3.039092 12.299788 0.067944 0.418277 10.332899 3.915171 -0.949489 14.832448 0.128688 -0.545173 -19.738960 0.000000 0.000000 0.000000 0.000000 0.000000 0.000000 0.000000 0.000000 0.000000 
